<?xml version="1.0" standalone="no"?>
<!DOCTYPE svg PUBLIC "-//W3C//DTD SVG 20010904//EN"
 "http://www.w3.org/TR/2001/REC-SVG-20010904/DTD/svg10.dtd">
<svg version="1.0" xmlns="http://www.w3.org/2000/svg"
 width="42.000000pt" height="76.000000pt" viewBox="0 0 42.000000 76.000000"
 preserveAspectRatio="xMidYMid meet">

<g transform="translate(0.000000,76.000000) scale(0.100000,-0.100000)"
fill="#000000" stroke="none">
<path d="M106 635 l-97 -115 61 0 60 0 0 -140 0 -140 80 0 80 0 0 140 0 140
60 0 61 0 -97 115 c-53 63 -100 115 -104 115 -4 0 -51 -52 -104 -115z m117 79
c9 -9 -133 -174 -150 -174 -18 0 -13 8 66 103 63 76 72 83 84 71z m-53 -330
c0 -76 -4 -124 -10 -124 -6 0 -10 50 -10 131 0 84 4 128 10 124 6 -4 10 -58
10 -131z"/>
<path d="M130 160 l0 -40 80 0 80 0 0 40 0 40 -80 0 -80 0 0 -40z m140 10 c0
-5 -22 -10 -50 -10 -27 0 -50 -4 -50 -10 0 -5 -4 -10 -10 -10 -5 0 -10 9 -10
20 0 18 7 20 60 20 33 0 60 -4 60 -10z"/>
<path d="M130 40 l0 -40 80 0 80 0 0 40 0 40 -80 0 -80 0 0 -40z m140 10 c0
-5 -22 -10 -50 -10 -27 0 -50 -4 -50 -10 0 -5 -4 -10 -10 -10 -5 0 -10 9 -10
20 0 18 7 20 60 20 33 0 60 -4 60 -10z"/>
</g>
</svg>
