<?xml version="1.0" standalone="no"?>
<!DOCTYPE svg PUBLIC "-//W3C//DTD SVG 20010904//EN"
 "http://www.w3.org/TR/2001/REC-SVG-20010904/DTD/svg10.dtd">
<svg version="1.0" xmlns="http://www.w3.org/2000/svg"
 width="64.000000pt" height="64.000000pt" viewBox="0 0 64.000000 64.000000"
 preserveAspectRatio="xMidYMid meet">

<g transform="translate(0.000000,64.000000) scale(0.100000,-0.100000)"
fill="#000000" stroke="none">
<path d="M173 459 c-132 -89 -149 -109 -121 -137 7 -7 20 -12 30 -12 16 0 18
-11 18 -105 l0 -105 60 0 c33 0 60 4 60 10 0 6 -22 10 -50 10 l-50 0 0 110 0
111 -26 -3 c-58 -6 -30 24 95 108 l131 87 131 -87 c125 -84 153 -114 95 -108
l-26 3 0 -111 0 -110 -125 0 -125 0 0 105 0 105 50 0 50 0 0 -34 c0 -28 -4
-35 -25 -40 -14 -4 -25 -12 -25 -20 0 -18 27 -39 40 -31 6 4 10 -7 10 -29 0
-20 5 -36 10 -36 6 0 10 42 10 105 l0 105 -70 0 -70 0 0 -125 0 -125 145 0
145 0 0 104 c0 99 1 105 21 108 27 4 44 29 36 51 -8 20 -256 187 -277 186 -8
0 -75 -41 -147 -90z m187 -229 c0 -5 -4 -10 -10 -10 -5 0 -10 5 -10 10 0 6 5
10 10 10 6 0 10 -4 10 -10z"/>
</g>
</svg>
