<?xml version="1.0" encoding="UTF-8" standalone="no"?>
<svg
   version="1.1"
   id="Layer_1"
   x="0px"
   y="0px"
   viewBox="0 0 122.88 122.87"
   style="enable-background:new 0 0 122.88 122.87"
   xml:space="preserve"
   sodipodi:docname="cross-dark.svg"
   inkscape:version="1.1 (c68e22c387, 2021-05-23)"
   xmlns:inkscape="http://www.inkscape.org/namespaces/inkscape"
   xmlns:sodipodi="http://sodipodi.sourceforge.net/DTD/sodipodi-0.dtd"
   xmlns="http://www.w3.org/2000/svg"
   xmlns:svg="http://www.w3.org/2000/svg"><defs
     id="defs15" /><sodipodi:namedview
     id="namedview13"
     pagecolor="#ffffff"
     bordercolor="#666666"
     borderopacity="1.0"
     inkscape:pageshadow="2"
     inkscape:pageopacity="0.0"
     inkscape:pagecheckerboard="0"
     showgrid="false"
     inkscape:zoom="3.4263855"
     inkscape:cx="86.82619"
     inkscape:cy="53.117199"
     inkscape:window-width="1920"
     inkscape:window-height="1046"
     inkscape:window-x="-11"
     inkscape:window-y="-11"
     inkscape:window-maximized="1"
     inkscape:current-layer="g10" /><style
     type="text/css"
     id="style2"></style>
     <g id="g10">
     <path
       class="st0"
       d="M 33.04,38.05 C 52.94,57.24 67.48,77.44 82.16,103.02 89.88,94.63 91.81,91.8 85.82,79.74 76.94,61.86 52.38,36.19 37.92,30.84 36.19,30.2 34.6,29.88 33.25,29.92 c -0.79,0.03 -1.86,0.8 -2.58,1.81 -1.61,2.26 0.12,4.15 2.37,6.32 z"
       id="path4"/><path
       class="st0"
       d="m 88.74,15.17 c -20.9,28.84 -42.87,56.96 -70.18,82.96 9.9,8.8 13.67,8.41 23.79,-0.31 C 59.72,82.84 85.39,46.96 94.31,26.7 95.8,23.32 97.33,17.83 93.5,15.65 91.94,14.76 89.89,14.33 88.74,15.17 Z"
       id="path6"/></g></svg>
